# xmcd
#
# Track frame offsets:
#	150
#	14877
#	34102
#	51994
#	67689
#	81952
#	94540
#	115378
#	128756
#	139722
#	159822
#	175070
#	192206
#	215815
#	235699
#	252002
#
# Disc length: 3704 seconds
#
# Revision: 1
# Processed by: cddbd v1.5.1PL0 Copyright (c) Steve Scherf et al.
# Submitted via: audiograbber 1.83.01
#
DISCID=d30e7610
DTITLE=Kapela Harnasie - Muraniu Hawraniu
DYEAR=1900
DGENRE=
TTITLE0=Muraniu, Hawraniu
TTITLE1=Winko cyrwone
TTITLE2=Posly dziady
TTITLE3=Siwy kon
TTITLE4=Miol nas lociec
TTITLE5=Kochanecki noje
TTITLE6=Kochalak cie chlopce
TTITLE7=Zegnaj mala
TTITLE8=Przystojny Edziu
TTITLE9=Tyle lat ciebie szukalem
TTITLE10=Nowina muz. ludowa
TTITLE11=Wspomnienie gorala
TTITLE12=Jarzebina czerwona
TTITLE13=Mila ma
TTITLE14=Gram i gram
TTITLE15=Peleryna
EXTD=
EXTT0=
EXTT1=
EXTT2=
EXTT3=
EXTT4=
EXTT5=
EXTT6=
EXTT7=
EXTT8=
EXTT9=
EXTT10=
EXTT11=
EXTT12=
EXTT13=
EXTT14=
EXTT15=
PLAYORDER=
